<svg width="40" height="40" viewBox="0 0 40 40" fill="none" xmlns="http://www.w3.org/2000/svg">
<path d="M13.3333 0H0V13.3333H13.3333V0Z" fill="#3B82F6"/>
<path d="M13.3333 0H0V13.3333H13.3333V0Z" fill="#3B82F6"/>
<path d="M13.3333 13.3333H0V26.6666H13.3333V13.3333Z" fill="#2247C0"/>
<path d="M13.3333 26.6667H0V40H13.3333V26.6667Z" fill="#1E40AF"/>
<path d="M26.6666 0H13.3333V13.3333H26.6666V0Z" fill="#60A5FA"/>
<path d="M26.6666 13.3333H13.3333V26.6666H26.6666V13.3333Z" fill="#2B53D8"/>
<path d="M26.6666 26.6667H13.3333V40H26.6666V26.6667Z" fill="#FFEACA"/>
<path d="M40 0H26.6667V13.3333H40V0Z" fill="#93C5FD"/>
<path d="M40 13.3333H26.6667V26.6666H40V13.3333Z" fill="#FFEACA"/>
<path d="M40 26.6667V40H26.6667L40 26.6667Z" fill="#040301"/>
<path d="M26.6667 40V26.6667H40L26.6667 40Z" fill="#FFEACA"/>
</svg>
