<svg width="206" height="61" viewBox="0 0 206 61" fill="none" xmlns="http://www.w3.org/2000/svg">
<path d="M13.3333 11H0V24.3333H13.3333V11Z" fill="#3B82F6"/>
<path d="M13.3333 11H0V24.3333H13.3333V11Z" fill="#3B82F6"/>
<path d="M13.3333 24.3333H0V37.6666H13.3333V24.3333Z" fill="#2247C0"/>
<path d="M13.3333 37.6667H0V51H13.3333V37.6667Z" fill="#1E40AF"/>
<path d="M26.6666 11H13.3333V24.3333H26.6666V11Z" fill="#60A5FA"/>
<path d="M26.6666 24.3333H13.3333V37.6666H26.6666V24.3333Z" fill="#2B53D8"/>
<path d="M26.6666 37.6667H13.3333V51H26.6666V37.6667Z" fill="#FFEACA"/>
<path d="M40 11H26.6667V24.3333H40V11Z" fill="#93C5FD"/>
<path d="M40 24.3333H26.6667V37.6666H40V24.3333Z" fill="#FFEACA"/>
<path d="M40 37.6667V51H26.6667L40 37.6667Z" fill="#040301"/>
<path d="M26.6667 51V37.6667H40L26.6667 51Z" fill="#FFEACA"/>
<path d="M73.3572 54.4091V40.9815H73.1449C72.8182 41.6785 72.3554 42.37 71.7564 43.0561C71.1683 43.7313 70.4006 44.2921 69.4531 44.7386C68.5166 45.1851 67.3731 45.4084 66.0227 45.4084C64.117 45.4084 62.3909 44.9183 60.8445 43.9382C59.3089 42.9472 58.0893 41.4934 57.1854 39.5767C56.2924 37.6491 55.8459 35.286 55.8459 32.4872C55.8459 29.6122 56.3087 27.2218 57.2344 25.3161C58.16 23.3994 59.3906 21.9673 60.9261 21.0199C62.4725 20.0616 64.166 19.5824 66.0064 19.5824C67.4112 19.5824 68.5819 19.822 69.5185 20.3011C70.4659 20.7694 71.2282 21.3575 71.8054 22.0653C72.3935 22.7623 72.84 23.4484 73.1449 24.1236H73.4389V19.9091H80.2997V54.4091H73.3572ZM68.228 39.8707C69.3497 39.8707 70.2971 39.5658 71.0703 38.956C71.8544 38.3352 72.4534 37.4695 72.8672 36.3587C73.2919 35.2479 73.5043 33.9465 73.5043 32.4545C73.5043 30.9626 73.2973 29.6667 72.8835 28.5668C72.4697 27.4669 71.8707 26.6174 71.0866 26.0185C70.3026 25.4195 69.3497 25.12 68.228 25.12C67.0845 25.12 66.1207 25.4304 65.3366 26.0511C64.5526 26.6719 63.959 27.5322 63.5561 28.6321C63.1532 29.732 62.9517 31.0062 62.9517 32.4545C62.9517 33.9138 63.1532 35.2043 63.5561 36.326C63.9699 37.4368 64.5634 38.308 65.3366 38.9396C66.1207 39.5604 67.0845 39.8707 68.228 39.8707ZM101.977 34.3168V19.9091H108.935V45H102.254V40.4425H101.993C101.427 41.9126 100.485 43.0942 99.1669 43.9872C97.8601 44.8802 96.2647 45.3267 94.3807 45.3267C92.7036 45.3267 91.228 44.9455 89.9538 44.1832C88.6797 43.4209 87.6832 42.3374 86.9645 40.9325C86.2566 39.5277 85.8973 37.8452 85.8864 35.8849V19.9091H92.8452V34.6435C92.8561 36.1245 93.2536 37.2952 94.0376 38.1555C94.8217 39.0159 95.8726 39.446 97.1903 39.446C98.0289 39.446 98.813 39.2554 99.5426 38.8743C100.272 38.4822 100.86 37.9051 101.307 37.1428C101.764 36.3804 101.987 35.4384 101.977 34.3168ZM114.502 45V19.9091H121.46V45H114.502ZM117.997 16.6747C116.963 16.6747 116.075 16.3317 115.335 15.6456C114.605 14.9486 114.24 14.1155 114.24 13.1463C114.24 12.188 114.605 11.3658 115.335 10.6797C116.075 9.98272 116.963 9.63423 117.997 9.63423C119.032 9.63423 119.914 9.98272 120.644 10.6797C121.384 11.3658 121.754 12.188 121.754 13.1463C121.754 14.1155 121.384 14.9486 120.644 15.6456C119.914 16.3317 119.032 16.6747 117.997 16.6747ZM127.165 45V11.5455H134.124V24.1236H134.337C134.642 23.4484 135.083 22.7623 135.66 22.0653C136.248 21.3575 137.01 20.7694 137.947 20.3011C138.894 19.822 140.07 19.5824 141.475 19.5824C143.305 19.5824 144.993 20.0616 146.539 21.0199C148.085 21.9673 149.321 23.3994 150.247 25.3161C151.173 27.2218 151.636 29.6122 151.636 32.4872C151.636 35.286 151.184 37.6491 150.28 39.5767C149.387 41.4934 148.167 42.9472 146.621 43.9382C145.085 44.9183 143.365 45.4084 141.459 45.4084C140.108 45.4084 138.96 45.1851 138.012 44.7386C137.076 44.2921 136.308 43.7313 135.709 43.0561C135.11 42.37 134.652 41.6785 134.337 40.9815H134.026V45H127.165ZM133.977 32.4545C133.977 33.9465 134.184 35.2479 134.598 36.3587C135.012 37.4695 135.611 38.3352 136.395 38.956C137.179 39.5658 138.132 39.8707 139.254 39.8707C140.386 39.8707 141.344 39.5604 142.129 38.9396C142.913 38.308 143.506 37.4368 143.909 36.326C144.323 35.2043 144.53 33.9138 144.53 32.4545C144.53 31.0062 144.328 29.732 143.925 28.6321C143.522 27.5322 142.929 26.6719 142.145 26.0511C141.361 25.4304 140.397 25.12 139.254 25.12C138.121 25.12 137.163 25.4195 136.379 26.0185C135.605 26.6174 135.012 27.4669 134.598 28.5668C134.184 29.6667 133.977 30.9626 133.977 32.4545ZM163.238 11.5455V45H156.279V11.5455H163.238ZM173.108 54.4091C172.226 54.4091 171.399 54.3383 170.625 54.1967C169.863 54.0661 169.231 53.8973 168.73 53.6903L170.299 48.4957C171.115 48.7462 171.85 48.8823 172.504 48.9041C173.168 48.9259 173.74 48.7734 174.219 48.4467C174.709 48.12 175.107 47.5646 175.412 46.7805L175.82 45.7188L166.819 19.9091H174.137L179.332 38.3352H179.593L184.837 19.9091H192.204L182.452 47.7116C181.984 49.062 181.347 50.2382 180.541 51.2401C179.746 52.2528 178.739 53.0315 177.519 53.576C176.299 54.1314 174.829 54.4091 173.108 54.4091Z" fill="white"/>
</svg>
